<mxfile host="65bd71144e">
    <diagram id="YdUg0zG6vP8pBDvGvStE" name="Page-1">
        <mxGraphModel dx="832" dy="563" grid="1" gridSize="10" guides="1" tooltips="1" connect="1" arrows="1" fold="1" page="1" pageScale="1" pageWidth="850" pageHeight="1100" math="0" shadow="0">
            <root>
                <mxCell id="0"/>
                <mxCell id="1" parent="0"/>
                <mxCell id="8" value="" style="edgeStyle=none;html=1;" parent="1" source="2" target="7" edge="1">
                    <mxGeometry relative="1" as="geometry"/>
                </mxCell>
                <mxCell id="2" value="User" style="rounded=0;whiteSpace=wrap;html=1;" parent="1" vertex="1">
                    <mxGeometry x="180" y="70" width="120" height="60" as="geometry"/>
                </mxCell>
                <mxCell id="12" value="" style="edgeStyle=none;html=1;" parent="1" source="7" target="11" edge="1">
                    <mxGeometry relative="1" as="geometry"/>
                </mxCell>
                <mxCell id="11" value="User" style="whiteSpace=wrap;html=1;rounded=0;" parent="1" vertex="1">
                    <mxGeometry x="540" y="70" width="120" height="60" as="geometry"/>
                </mxCell>
                <mxCell id="16" value="Level 0 Data Flow Diagram" style="swimlane;whiteSpace=wrap;html=1;" parent="1" vertex="1">
                    <mxGeometry x="160" y="10" width="510" height="240" as="geometry"/>
                </mxCell>
                <mxCell id="7" value="Chatbot" style="ellipse;whiteSpace=wrap;html=1;rounded=0;" parent="16" vertex="1">
                    <mxGeometry x="220" y="50" width="80" height="80" as="geometry"/>
                </mxCell>
                <mxCell id="13" value="Sentimental Analysis&lt;div&gt;&amp;amp;&lt;/div&gt;&lt;div&gt;API&lt;/div&gt;" style="rounded=0;whiteSpace=wrap;html=1;" parent="16" vertex="1">
                    <mxGeometry x="200" y="160" width="120" height="60" as="geometry"/>
                </mxCell>
                <mxCell id="14" style="edgeStyle=none;html=1;entryX=0.5;entryY=1;entryDx=0;entryDy=0;" parent="16" source="13" target="7" edge="1">
                    <mxGeometry relative="1" as="geometry"/>
                </mxCell>
                <mxCell id="17" value="" style="endArrow=none;html=1;" parent="1" edge="1">
                    <mxGeometry width="50" height="50" relative="1" as="geometry">
                        <mxPoint y="280" as="sourcePoint"/>
                        <mxPoint x="840" y="280" as="targetPoint"/>
                    </mxGeometry>
                </mxCell>
                <mxCell id="50" style="edgeStyle=none;html=1;" parent="1" source="31" edge="1">
                    <mxGeometry relative="1" as="geometry">
                        <mxPoint x="80" y="440" as="targetPoint"/>
                        <Array as="points">
                            <mxPoint x="80" y="516"/>
                        </Array>
                    </mxGeometry>
                </mxCell>
                <mxCell id="37" value="" style="edgeStyle=none;html=1;" parent="1" source="33" target="36" edge="1">
                    <mxGeometry relative="1" as="geometry"/>
                </mxCell>
                <mxCell id="33" value="User" style="shape=umlActor;verticalLabelPosition=bottom;verticalAlign=top;html=1;outlineConnect=0;fillColor=#f5f5f5;gradientColor=#b3b3b3;strokeColor=#666666;" parent="1" vertex="1">
                    <mxGeometry x="60" y="360" width="30" height="60" as="geometry"/>
                </mxCell>
                <mxCell id="39" value="" style="edgeStyle=none;html=1;" parent="1" source="36" target="38" edge="1">
                    <mxGeometry relative="1" as="geometry"/>
                </mxCell>
                <mxCell id="36" value="Login&lt;div&gt;or&lt;/div&gt;&lt;div&gt;Register&lt;/div&gt;" style="whiteSpace=wrap;html=1;verticalAlign=top;" parent="1" vertex="1">
                    <mxGeometry x="145" y="360" width="120" height="60" as="geometry"/>
                </mxCell>
                <mxCell id="40" style="edgeStyle=none;html=1;entryX=0.5;entryY=0;entryDx=0;entryDy=0;" parent="1" source="38" target="31" edge="1">
                    <mxGeometry relative="1" as="geometry"/>
                </mxCell>
                <mxCell id="42" value="" style="edgeStyle=none;html=1;" parent="1" source="38" target="41" edge="1">
                    <mxGeometry relative="1" as="geometry"/>
                </mxCell>
                <mxCell id="62" style="edgeStyle=none;html=1;entryX=1;entryY=0.75;entryDx=0;entryDy=0;exitX=0.053;exitY=0.705;exitDx=0;exitDy=0;exitPerimeter=0;" parent="1" source="38" target="36" edge="1">
                    <mxGeometry relative="1" as="geometry">
                        <mxPoint x="340" y="410" as="sourcePoint"/>
                    </mxGeometry>
                </mxCell>
                <mxCell id="38" value="&lt;div&gt;&lt;br&gt;&lt;/div&gt;User Authentication" style="ellipse;whiteSpace=wrap;html=1;verticalAlign=top;align=center;" parent="1" vertex="1">
                    <mxGeometry x="365" y="350" width="80" height="80" as="geometry"/>
                </mxCell>
                <mxCell id="41" value="&lt;div&gt;&lt;br&gt;&lt;/div&gt;User Database" style="whiteSpace=wrap;html=1;verticalAlign=top;" parent="1" vertex="1">
                    <mxGeometry x="580" y="360" width="120" height="60" as="geometry"/>
                </mxCell>
                <mxCell id="43" style="edgeStyle=none;html=1;entryX=0.949;entryY=0.675;entryDx=0;entryDy=0;entryPerimeter=0;exitX=0;exitY=0.75;exitDx=0;exitDy=0;" parent="1" source="41" target="38" edge="1">
                    <mxGeometry relative="1" as="geometry">
                        <mxPoint x="500" y="400" as="sourcePoint"/>
                    </mxGeometry>
                </mxCell>
                <mxCell id="44" value="Enters details" style="text;html=1;align=center;verticalAlign=middle;resizable=0;points=[];autosize=1;strokeColor=none;fillColor=none;" parent="1" vertex="1">
                    <mxGeometry x="259" y="368" width="100" height="30" as="geometry"/>
                </mxCell>
                <mxCell id="46" value="User validation" style="text;html=1;align=center;verticalAlign=middle;resizable=0;points=[];autosize=1;strokeColor=none;fillColor=none;" parent="1" vertex="1">
                    <mxGeometry x="455" y="368" width="100" height="30" as="geometry"/>
                </mxCell>
                <mxCell id="48" value="get validated" style="text;html=1;align=center;verticalAlign=middle;resizable=0;points=[];autosize=1;strokeColor=none;fillColor=none;" parent="1" vertex="1">
                    <mxGeometry x="455" y="398" width="90" height="30" as="geometry"/>
                </mxCell>
                <mxCell id="59" value="Level 1 Data Flow Diagram" style="swimlane;whiteSpace=wrap;html=1;startSize=23;" parent="1" vertex="1">
                    <mxGeometry x="40" y="310" width="720" height="530" as="geometry"/>
                </mxCell>
                <mxCell id="60" style="edgeStyle=none;html=1;exitX=0;exitY=0.6;exitDx=0;exitDy=0;exitPerimeter=0;" parent="59" source="21" edge="1">
                    <mxGeometry relative="1" as="geometry">
                        <mxPoint x="39.64" y="178" as="targetPoint"/>
                        <mxPoint x="304.9999999999999" y="485.6199999999999" as="sourcePoint"/>
                        <Array as="points">
                            <mxPoint x="39.64" y="486"/>
                        </Array>
                    </mxGeometry>
                </mxCell>
                <mxCell id="21" value="Chat History" style="whiteSpace=wrap;html=1;rounded=0;" parent="59" vertex="1">
                    <mxGeometry x="305" y="450" width="120" height="60" as="geometry"/>
                </mxCell>
                <mxCell id="51" value="Receives response" style="text;html=1;align=center;verticalAlign=middle;resizable=0;points=[];autosize=1;strokeColor=none;fillColor=none;" parent="59" vertex="1">
                    <mxGeometry x="87" y="201" width="130" height="30" as="geometry"/>
                </mxCell>
                <mxCell id="55" value="update chat" style="text;html=1;align=center;verticalAlign=middle;resizable=0;points=[];autosize=1;strokeColor=none;fillColor=none;rotation=0;" parent="59" vertex="1">
                    <mxGeometry x="170" y="440" width="90" height="30" as="geometry"/>
                </mxCell>
                <mxCell id="56" value="reflect updates" style="text;html=1;align=center;verticalAlign=middle;resizable=0;points=[];autosize=1;strokeColor=none;fillColor=none;rotation=0;" parent="59" vertex="1">
                    <mxGeometry x="90.64" y="478" width="100" height="30" as="geometry"/>
                </mxCell>
                <mxCell id="52" value="update history" style="ellipse;whiteSpace=wrap;html=1;rounded=0;" parent="59" vertex="1">
                    <mxGeometry x="110" y="310" width="88" height="80" as="geometry"/>
                </mxCell>
                <mxCell id="53" value="" style="edgeStyle=none;html=1;exitX=0;exitY=0.5;exitDx=0;exitDy=0;entryX=1;entryY=0.5;entryDx=0;entryDy=0;" parent="59" source="26" target="52" edge="1">
                    <mxGeometry relative="1" as="geometry">
                        <mxPoint x="91" y="217.14" as="sourcePoint"/>
                    </mxGeometry>
                </mxCell>
                <mxCell id="54" style="edgeStyle=none;html=1;entryX=0;entryY=0.25;entryDx=0;entryDy=0;exitX=0.5;exitY=1;exitDx=0;exitDy=0;" parent="59" source="52" target="21" edge="1">
                    <mxGeometry relative="1" as="geometry">
                        <mxPoint x="73.48000000000002" y="215.9999999999999" as="targetPoint"/>
                        <Array as="points">
                            <mxPoint x="154" y="465"/>
                        </Array>
                    </mxGeometry>
                </mxCell>
                <mxCell id="20" value="" style="edgeStyle=none;html=1;exitX=1;exitY=0.5;exitDx=0;exitDy=0;" parent="59" source="31" target="19" edge="1">
                    <mxGeometry relative="1" as="geometry">
                        <mxPoint x="406.04" y="202" as="sourcePoint"/>
                    </mxGeometry>
                </mxCell>
                <mxCell id="23" value="Send request" style="text;html=1;align=center;verticalAlign=middle;resizable=0;points=[];autosize=1;strokeColor=none;fillColor=none;" parent="59" vertex="1">
                    <mxGeometry x="442.04" y="178" width="90" height="30" as="geometry"/>
                </mxCell>
                <mxCell id="27" value="" style="edgeStyle=none;html=1;exitX=0;exitY=0.5;exitDx=0;exitDy=0;" parent="59" source="24" edge="1">
                    <mxGeometry relative="1" as="geometry">
                        <mxPoint x="380" y="350" as="targetPoint"/>
                    </mxGeometry>
                </mxCell>
                <mxCell id="24" value="API call&lt;div&gt;&amp;amp;&lt;/div&gt;&lt;div&gt;Sentimental Analysis&lt;/div&gt;" style="ellipse;whiteSpace=wrap;html=1;rounded=0;" parent="59" vertex="1">
                    <mxGeometry x="560" y="310" width="80" height="80" as="geometry"/>
                </mxCell>
                <mxCell id="58" value="Generate response" style="text;html=1;align=center;verticalAlign=middle;resizable=0;points=[];autosize=1;strokeColor=none;fillColor=none;" parent="59" vertex="1">
                    <mxGeometry x="416.04" y="325" width="130" height="30" as="geometry"/>
                </mxCell>
                <mxCell id="19" value="Process Request" style="ellipse;whiteSpace=wrap;html=1;rounded=0;" parent="59" vertex="1">
                    <mxGeometry x="560" y="166" width="80" height="80" as="geometry"/>
                </mxCell>
                <mxCell id="25" value="" style="edgeStyle=none;html=1;" parent="59" source="19" target="24" edge="1">
                    <mxGeometry relative="1" as="geometry"/>
                </mxCell>
                <mxCell id="57" value="transfer request" style="text;html=1;align=center;verticalAlign=middle;resizable=0;points=[];autosize=1;strokeColor=none;fillColor=none;" parent="59" vertex="1">
                    <mxGeometry x="498" y="263" width="110" height="30" as="geometry"/>
                </mxCell>
                <mxCell id="31" value="Chatbot platform" style="rounded=1;whiteSpace=wrap;html=1;" parent="59" vertex="1">
                    <mxGeometry x="305" y="176" width="120" height="60" as="geometry"/>
                </mxCell>
                <mxCell id="64" style="edgeStyle=none;html=1;entryX=0.5;entryY=0;entryDx=0;entryDy=0;" parent="59" source="26" target="21" edge="1">
                    <mxGeometry relative="1" as="geometry"/>
                </mxCell>
                <mxCell id="26" value="Generate&lt;div&gt;response&lt;/div&gt;" style="ellipse;whiteSpace=wrap;html=1;rounded=0;" parent="59" vertex="1">
                    <mxGeometry x="325" y="310" width="80" height="80" as="geometry"/>
                </mxCell>
                <mxCell id="28" style="edgeStyle=none;html=1;" parent="59" source="26" target="31" edge="1">
                    <mxGeometry relative="1" as="geometry">
                        <mxPoint x="260" y="280" as="targetPoint"/>
                    </mxGeometry>
                </mxCell>
                <mxCell id="30" value="Recieves response" style="text;html=1;align=center;verticalAlign=middle;resizable=0;points=[];autosize=1;strokeColor=none;fillColor=none;rotation=0;" parent="59" vertex="1">
                    <mxGeometry x="199" y="327" width="130" height="30" as="geometry"/>
                </mxCell>
                <mxCell id="49" value="Redirects to" style="text;html=1;align=center;verticalAlign=middle;resizable=0;points=[];autosize=1;strokeColor=none;fillColor=none;rotation=0;" parent="59" vertex="1">
                    <mxGeometry x="284" y="130" width="90" height="30" as="geometry"/>
                </mxCell>
                <mxCell id="63" value="if invalid" style="text;html=1;align=center;verticalAlign=middle;resizable=0;points=[];autosize=1;strokeColor=none;fillColor=none;" parent="59" vertex="1">
                    <mxGeometry x="234" y="88" width="70" height="30" as="geometry"/>
                </mxCell>
                <mxCell id="65" value="save chat" style="text;html=1;align=center;verticalAlign=middle;resizable=0;points=[];autosize=1;strokeColor=none;fillColor=none;" parent="1" vertex="1">
                    <mxGeometry x="399" y="712" width="70" height="30" as="geometry"/>
                </mxCell>
            </root>
        </mxGraphModel>
    </diagram>
</mxfile>